# xmcd CD database file
#
# Track frame offsets:
#	150
#	24450
#	51559
#	73221
#	100832
#	130686
#	152170
#	163806
#	188624
#	200677
#	219027
#	241610
#	263775
#
# Disc length: 3741 seconds
#
# Revision: 0
# Processed by: cddbd v1.5.2PL0 Copyright (c) Steve Scherf et al.
# Submitted via: CDex 1.51
#
DISCID=b20e9b0d
DTITLE=Tortiller | Michel | Héral - ImpertinAnce
DYEAR=2006
DGENRE=Jazz
TTITLE0=01-Les sorcières
TTITLE1=02-Mona
TTITLE2=03-La belle vie...
TTITLE3=04-Impertinance
TTITLE4=05-Mojo
TTITLE5=06-Luiza blanca
TTITLE6=07-A-627
TTITLE7=08-Do You Loveliness 2?
TTITLE8=09-Mahleur, mahleur
TTITLE9=10-Archangelica
TTITLE10=11-Claret
TTITLE11=12-Serpent et sonnailles
TTITLE12=13-Les charmes
EXTD=YEAR: 2006
EXTT0=
EXTT1=
EXTT2=
EXTT3=
EXTT4=
EXTT5=
EXTT6=
EXTT7=
EXTT8=
EXTT9=
EXTT10=
EXTT11=
EXTT12=
PLAYORDER=
